<svg preserveAspectRatio="none" overflow="visible" style="display: block;" width="16" height="16" viewBox="0 0 16 16" fill="none" xmlns="http://www.w3.org/2000/svg">
<g id="Group">
<g id="Group_2">
<path id="Path" d="M12 3.33333H14" stroke="#737373" stroke-width="1.5" stroke-linecap="round" stroke-linejoin="round"/>
<path id="Path_2" d="M2 3.33333H9.33333" stroke="#737373" stroke-width="1.5" stroke-linecap="round" stroke-linejoin="round"/>
<path id="Path_3" d="M6.66667 8H14" stroke="#737373" stroke-width="1.5" stroke-linecap="round" stroke-linejoin="round"/>
<path id="Path_4" d="M2 8H4" stroke="#737373" stroke-width="1.5" stroke-linecap="round" stroke-linejoin="round"/>
<path id="Path_5" d="M12 12.6667H14" stroke="#737373" stroke-width="1.5" stroke-linecap="round" stroke-linejoin="round"/>
<path id="Path_6" d="M2 12.6667H9.33333" stroke="#737373" stroke-width="1.5" stroke-linecap="round" stroke-linejoin="round"/>
<path id="Path_7" d="M11.6095 2.39052C12.1302 2.91122 12.1302 3.75544 11.6095 4.27614C11.0888 4.79684 10.2446 4.79684 9.72386 4.27614C9.20316 3.75545 9.20316 2.91122 9.72386 2.39052C10.2446 1.86983 11.0888 1.86983 11.6095 2.39052" stroke="#737373" stroke-width="1.5" stroke-linecap="round" stroke-linejoin="round"/>
<path id="Path_8" d="M6.27614 7.05719C6.79684 7.57789 6.79684 8.42211 6.27614 8.94281C5.75545 9.46351 4.91122 9.46351 4.39052 8.94281C3.86983 8.42211 3.86983 7.57789 4.39052 7.05719C4.91122 6.53649 5.75544 6.53649 6.27614 7.05719" stroke="#737373" stroke-width="1.5" stroke-linecap="round" stroke-linejoin="round"/>
<path id="Path_9" d="M11.6095 11.7239C12.1302 12.2446 12.1302 13.0888 11.6095 13.6095C11.0888 14.1302 10.2446 14.1302 9.72386 13.6095C9.20316 13.0888 9.20316 12.2446 9.72386 11.7239C10.2446 11.2032 11.0888 11.2032 11.6095 11.7239" stroke="#737373" stroke-width="1.5" stroke-linecap="round" stroke-linejoin="round"/>
</g>
<g id="Path_10">
</g>
</g>
</svg>
